<?xml version="1.0" encoding="UTF-8" standalone="no"?>
<svg
   xmlns:dc="http://purl.org/dc/elements/1.1/"
   xmlns:cc="http://creativecommons.org/ns#"
   xmlns:rdf="http://www.w3.org/1999/02/22-rdf-syntax-ns#"
   xmlns:svg="http://www.w3.org/2000/svg"
   xmlns="http://www.w3.org/2000/svg"
   xmlns:sodipodi="http://sodipodi.sourceforge.net/DTD/sodipodi-0.dtd"
   xmlns:inkscape="http://www.inkscape.org/namespaces/inkscape"
   viewBox="0 0 512 512"
   id="vector"
   version="1.1"
   sodipodi:docname="icon2.svg"
   width="512"
   height="512"
   inkscape:version="0.92.5 (2060ec1f9f, 2020-04-08)">
  <metadata
     id="metadata9">
    <rdf:RDF>
      <cc:Work
         rdf:about="">
        <dc:format>image/svg+xml</dc:format>
        <dc:type
           rdf:resource="http://purl.org/dc/dcmitype/StillImage" />
        <dc:title></dc:title>
      </cc:Work>
    </rdf:RDF>
  </metadata>
  <defs
     id="defs7" />
  <sodipodi:namedview
     pagecolor="#ffffff"
     bordercolor="#666666"
     borderopacity="1"
     objecttolerance="10"
     gridtolerance="10"
     guidetolerance="10"
     inkscape:pageopacity="0"
     inkscape:pageshadow="2"
     inkscape:window-width="1920"
     inkscape:window-height="1051"
     id="namedview5"
     showgrid="false"
     inkscape:pagecheckerboard="true"
     inkscape:zoom="1"
     inkscape:cx="89.798421"
     inkscape:cy="321.91629"
     inkscape:window-x="0"
     inkscape:window-y="1"
     inkscape:window-maximized="1"
     inkscape:current-layer="vector" />
  <g
     id="group_1"
     transform="matrix(21.431561,0,0,21.333333,-1.0715781,0)"
     style="stroke-width:0.12206306">
    <path
       id="path_1"
       d="M 7.52,21.48 C 4.25,19.94 1.91,16.76 1.55,13 H 0.05 C 0.56,19.16 5.71,24 12,24 L 12.66,23.97 8.85,20.16 Z M 12,0 11.34,0.03 15.15,3.84 16.48,2.51 c 3.27,1.55 5.61,4.72 5.96,8.48 h 1.5 C 23.44,4.84 18.29,0 12,0 Z"
       inkscape:connector-curvature="0"
       style="fill:#ffffff;stroke-width:0.12206306"
       sodipodi:nodetypes="cccccccccccccc" />
  </g>
  <path
     d="m 338.88001,128 -82.88,82.87998 L 173.12001,128 128,173.12002 210.88,256 128,338.87998 173.12001,384 256.00001,301.12002 338.88001,384 384,338.87998 301.12,256 384,173.12002 Z"
     id="path_1-6"
     inkscape:connector-curvature="0"
     style="fill:#ffffff;stroke-width:1" />
</svg>
